<?xml version="1.0" encoding="UTF-8"?> <svg xmlns:rdf="http://www.w3.org/1999/02/22-rdf-syntax-ns#" xmlns:inkscape="http://www.inkscape.org/namespaces/inkscape" xmlns:cc="http://creativecommons.org/ns#" xmlns:sodipodi="http://sodipodi.sourceforge.net/DTD/sodipodi-0.dtd" xmlns:dc="http://purl.org/dc/elements/1.1/" xmlns:svg="http://www.w3.org/2000/svg" xmlns="http://www.w3.org/2000/svg" xmlns:xlink="http://www.w3.org/1999/xlink" version="1.1" id="Layer_1" x="0px" y="0px" viewBox="0 0 60 71" style="enable-background:new 0 0 60 71;" xml:space="preserve"> <style type="text/css"> .st0{fill:#01347C;} </style> <g> <path class="st0" d="M43.5,0.5H-0.1v34.7v5c0,5.2,0.4,9.3,1.1,12.4c0.8,3.1,2,5.8,3.8,8.3c0.3,0.4,0.6,0.8,0.9,1.1 c2.3,2.6,5.4,4.7,9.2,6.3c2.2,0.9,4.4,1.6,6.7,2c0.8,0.2,1.7,0.3,2.5,0.4c0.1,0,0.2,0,0.3,0l0,0c1.5,0.2,3,0.3,4.6,0.3 c5.2,0,9.7-0.8,13.7-2.4c4-1.6,7.4-4,10.3-7.2c0.2-0.2,0.4-0.4,0.6-0.6c0.2-0.2,0.4-0.4,0.6-0.6c2.1-2.6,3.5-5.4,4.3-8.4 c0.5-1.8,0.8-4,1-6.5l0,0c0.1-1.6,0.2-3.3,0.2-5.2V17.6V0.5H43.5z M30.4,61.8c3-4.9,6.2-9.8,9.3-14.6H13c-0.8,0-1.5-0.7-1.5-1.5V15 c0-0.8,0.7-1.5,1.5-1.5h33.7c0.8,0,1.5,0.7,1.5,1.5v19.5c2.4-3.5,4.9-7,7.4-10.4C47.7,37,39.3,49.6,30.4,61.8z"></path> <path class="st0" d="M14.4,27.5v16.8h27.3c1.2-1.8,2.5-3.7,3.7-5.5V27.5H14.4z M24.3,38.3c0.3,0.2,0.6,0.4,0.9,0.7 c0.6,0.5,0.7,1.3,0.3,2c-0.4,0.6-1.3,0.8-1.9,0.3c-1.9-1.4-3.8-2.8-5.7-4.3c-0.7-0.6-0.7-1.6,0-2.2c1.9-1.4,3.8-2.9,5.7-4.3 c0.6-0.5,1.5-0.3,1.9,0.3c0.5,0.6,0.3,1.5-0.3,2c-1.2,0.9-2.5,1.9-3.7,2.8c-0.1,0.1-0.2,0.2-0.3,0.3C22.1,36.7,23.2,37.5,24.3,38.3 z M32.6,32.1c-0.9,2.8-1.9,5.6-2.8,8.4c-0.2,0.6-0.7,1-1.3,1c-0.9,0-1.6-0.9-1.4-1.8c0.9-2.8,1.9-5.7,2.8-8.5 c0.3-0.7,1-1.1,1.7-0.8C32.5,30.6,32.9,31.3,32.6,32.1z M41.9,37.1c-1.8,1.4-3.6,2.7-5.4,4.1c-0.7,0.5-1.6,0.4-2.1-0.2 c-0.5-0.7-0.3-1.5,0.4-2c1.2-0.9,2.5-1.8,3.7-2.8c0.1-0.1,0.2-0.1,0.3-0.2c-1.4-1-2.7-2-4-3c-0.6-0.4-0.7-1.1-0.5-1.7 c0.2-0.6,0.8-0.9,1.5-0.8c0.3,0,0.5,0.2,0.8,0.3c1.8,1.4,3.7,2.7,5.5,4.1C42.7,35.4,42.7,36.4,41.9,37.1z"></path> <path class="st0" d="M14.4,16.4v8.2h30.9v-8.2H14.4z M18.7,21.9c-0.8,0-1.4-0.6-1.4-1.4c0-0.8,0.6-1.4,1.4-1.4 c0.8,0,1.4,0.6,1.4,1.4C20.1,21.3,19.5,21.9,18.7,21.9z M24.3,21.9c-0.8,0-1.4-0.6-1.4-1.4c0-0.8,0.6-1.4,1.4-1.4 c0.8,0,1.4,0.6,1.4,1.4C25.7,21.3,25.1,21.9,24.3,21.9z M29.9,21.9c-0.8,0-1.4-0.6-1.4-1.4c0-0.8,0.6-1.4,1.4-1.4 c0.8,0,1.4,0.6,1.4,1.4C31.3,21.3,30.7,21.9,29.9,21.9z"></path> </g> </svg> 